<svg xmlns="http://www.w3.org/2000/svg" viewBox="0 0 800 600">
  <!-- Background -->
  <rect width="800" height="600" fill="#f5f5f5"/>
  
  <!-- Main Icon -->
  <g transform="translate(200 150)">
    <!-- Document -->
    <path d="M120 0h240v320H120z" fill="#2c3e50"/>
    <path d="M140 40h200v280H140z" fill="#34495e"/>
    <path d="M160 80h160v240H160z" fill="#2c3e50"/>
    
    <!-- Lines -->
    <path d="M180 120h120" stroke="#ecf0f1" stroke-width="4"/>
    <path d="M180 160h120" stroke="#ecf0f1" stroke-width="4"/>
    <path d="M180 200h120" stroke="#ecf0f1" stroke-width="4"/>
    
    <!-- Pen -->
    <path d="M280 240l20-20 40 40-20 20z" fill="#e74c3c"/>
    <path d="M300 220l20-20 40 40-20 20z" fill="#c0392b"/>
    
    <!-- Settings Gear -->
    <circle cx="220" cy="280" r="20" fill="#27ae60"/>
    <path d="M220 260v40" stroke="#1e8449" stroke-width="4"/>
    <path d="M200 280h40" stroke="#1e8449" stroke-width="4"/>
  </g>
  
  <!-- Checkmark Circles -->
  <g fill="#2ecc71">
    <circle cx="350" cy="450" r="30"/>
    <circle cx="550" cy="450" r="30"/>
  </g>
  <g fill="#fff" font-family="Arial" font-size="30">
    <text x="350" y="455" text-anchor="middle" dy=".3em">✓</text>
    <text x="550" y="455" text-anchor="middle" dy=".3em">✓</text>
    </g>
  
 
</svg>